<svg xmlns="http://www.w3.org/2000/svg" xmlns:xlink="http://www.w3.org/1999/xlink" viewBox="0 0 170.43 751.04"><defs><style>.a,.aa,.ab,.ac,.ad,.ae,.af,.b,.c,.d,.e,.f,.g,.h,.i,.j,.k,.l,.m,.n,.o,.p,.q,.r,.s,.t,.u,.v,.w,.x,.y,.z{stroke:#000;}.a,.aa,.ab,.ac,.ad,.ae,.af,.b,.c,.d,.e,.f,.g,.h,.i,.j,.k,.l,.m,.n,.o,.p,.q,.r,.t,.u,.v,.w,.x,.y,.z{stroke-miterlimit:10;}.a{stroke-width:1.13px;fill:url(#a);}.af,.b,.e,.f,.g,.h,.i,.j,.k,.l,.m,.n,.o,.p,.q,.r,.v,.y{stroke-width:1.25px;}.b{fill:url(#b);}.aa,.ab,.c,.d,.f,.t,.x{fill:none;}.d,.z{stroke-width:1.4px;}.e{fill:url(#c);}.g{fill:url(#d);}.h{fill:url(#e);}.i{fill:url(#f);}.j{fill:url(#g);}.k{fill:url(#h);}.l{fill:url(#i);}.m{fill:url(#j);}.n{fill:url(#k);}.o{fill:url(#l);}.p{fill:url(#m);}.q{fill:url(#n);}.r{fill:url(#o);}.s{fill:#89003e;stroke-linecap:round;stroke-linejoin:round;stroke-width:1.61px;}.t,.u{stroke-width:1.18px;}.u{fill:url(#p);}.v{fill:url(#q);}.w,.x{stroke-width:0.81px;}.w{fill:url(#r);}.y{fill:url(#s);}.z{fill:url(#t);}.aa{stroke-width:0.78px;}.ab{stroke-width:1.59px;}.ac{fill:#c7a64c;}.ad{fill:#006868;}.ae{fill:#00ff80;}.af{fill:url(#u);}</style><radialGradient id="a" cx="154.33" cy="16.35" r="47.92" gradientUnits="userSpaceOnUse"><stop offset="0" stop-color="#e5e2df"/><stop offset="0" stop-color="#f1efee"/><stop offset="0" stop-color="#fff"/><stop offset="0.13" stop-color="#f0f0f1"/><stop offset="0.37" stop-color="#c9cacb"/><stop offset="0.52" stop-color="#adaeb0"/><stop offset="0.6" stop-color="#a3a5a7"/><stop offset="0.74" stop-color="#898d90"/><stop offset="0.91" stop-color="#5f6769"/><stop offset="1" stop-color="#465053"/></radialGradient><radialGradient id="b" cx="142.49" cy="61.01" r="25.87" gradientUnits="userSpaceOnUse"><stop offset="0.01" stop-color="#c4c6c8"/><stop offset="0.3" stop-color="#bcbec0"/><stop offset="0.66" stop-color="#a7a9ac"/><stop offset="1" stop-color="#9b9da0"/></radialGradient><radialGradient id="c" cx="68.5" cy="44.55" r="19.95" xlink:href="#b"/><radialGradient id="d" cx="84.85" cy="424.36" r="149.18" xlink:href="#b"/><radialGradient id="e" cx="74.14" cy="789.99" r="146.82" xlink:href="#b"/><radialGradient id="f" cx="80.49" cy="235.55" r="124.1" xlink:href="#b"/><linearGradient id="g" x1="24.18" y1="63.14" x2="94.53" y2="63.14" gradientUnits="userSpaceOnUse"><stop offset="0" stop-color="#e5e2df"/><stop offset="0" stop-color="#ded9d6"/><stop offset="0.04" stop-color="#cfccc9"/><stop offset="0.11" stop-color="#a8a8a8"/><stop offset="0.21" stop-color="#6a7072"/><stop offset="0.26" stop-color="#465053"/><stop offset="0.37" stop-color="#878d8f"/><stop offset="0.46" stop-color="#b7babb"/><stop offset="0.53" stop-color="#d5d6d6"/><stop offset="0.57" stop-color="#e0e0e0"/><stop offset="0.63" stop-color="#d6d7d8"/><stop offset="0.73" stop-color="#bcbfc2"/><stop offset="0.86" stop-color="#92989e"/><stop offset="0.88" stop-color="#8b9298"/><stop offset="1" stop-color="#d1d3d4"/><stop offset="1" stop-color="#a7a9ac"/></linearGradient><linearGradient id="h" x1="99.62" y1="174.54" x2="108.49" y2="174.54" gradientUnits="userSpaceOnUse"><stop offset="0.01" stop-color="#85878d"/><stop offset="0.53" stop-color="#979899"/><stop offset="1" stop-color="#5d5c62"/></linearGradient><radialGradient id="i" cx="107.4" cy="237.02" r="113.87" xlink:href="#b"/><radialGradient id="j" cx="135.21" cy="126.28" r="69.7" xlink:href="#b"/><linearGradient id="k" x1="112.22" y1="223.42" x2="127.35" y2="223.42" xlink:href="#h"/><linearGradient id="l" x1="100.08" y1="382.69" x2="104.99" y2="382.69" xlink:href="#h"/><linearGradient id="m" x1="107.19" y1="402.13" x2="112.28" y2="402.13" xlink:href="#h"/><linearGradient id="n" x1="94.91" y1="343.56" x2="102.25" y2="343.56" gradientUnits="userSpaceOnUse"><stop offset="0.1" stop-color="#465053"/><stop offset="0.69" stop-color="#adaeb0"/><stop offset="0.75" stop-color="#a0a2a5"/><stop offset="0.87" stop-color="#7f8486"/><stop offset="1" stop-color="#545d60"/></linearGradient><linearGradient id="o" x1="86.16" y1="422.54" x2="114.72" y2="422.54" gradientUnits="userSpaceOnUse"><stop offset="0.03" stop-color="#9b9b98"/><stop offset="0.13" stop-color="#a4a5a7"/><stop offset="0.22" stop-color="#aeb0b7"/><stop offset="0.35" stop-color="#9fa3aa"/><stop offset="0.61" stop-color="#788187"/><stop offset="0.72" stop-color="#657076"/><stop offset="1" stop-color="#8b949a"/></linearGradient><linearGradient id="p" x1="54.74" y1="393.42" x2="85.87" y2="393.42" xlink:href="#n"/><radialGradient id="q" cx="74.25" cy="586.31" r="103.43" xlink:href="#b"/><linearGradient id="r" x1="92.19" y1="739.97" x2="99.54" y2="739.97" gradientUnits="userSpaceOnUse"><stop offset="0.01" stop-color="#dee3e6"/><stop offset="0.25" stop-color="#fffde5"/><stop offset="0.4" stop-color="#f0ecd8"/><stop offset="0.6" stop-color="#d6cdc1"/><stop offset="0.79" stop-color="#ededee"/><stop offset="1" stop-color="#d8d5bb"/></linearGradient><radialGradient id="s" cx="96.1" cy="643.22" r="24.49" xlink:href="#b"/><radialGradient id="t" cx="58.36" cy="34.37" r="16.08" xlink:href="#b"/><linearGradient id="u" x1="95.26" y1="343.56" x2="102.25" y2="343.56" xlink:href="#n"/></defs><path class="a" d="M154.23,82.19c-10.91,5-24.35-.93-30-13.25s-1.4-26.39,9.51-31.4,24.35.92,30,13.25S165.14,77.18,154.23,82.19Z"/><path class="b" d="M164.52,50.9c-4.22-9.19-12.3-15.17-20.82-16.48-.14,0-.28-.06-.43-.07a22,22,0,0,0-12.21,1.78c-12.17,5.58-16.91,21.26-10.6,35s21.29,20.35,33.46,14.77c7-3.2,11.51-9.72,12.92-17.29,0,0,0-.06,0-.09A29.63,29.63,0,0,0,164.52,50.9ZM154.23,82.19c-10.91,5-24.35-.93-30-13.25s-1.4-26.39,9.51-31.4,24.35.92,30,13.25S165.14,77.18,154.23,82.19Z"/><path class="c" d="M154.23,82.19c-10.91,5-24.35-.93-30-13.25s-1.4-26.39,9.51-31.4,24.35.92,30,13.25S165.14,77.18,154.23,82.19Z"/><path class="d" d="M45.22,29.52c.78-.21,1.59-.4,2.45-.57C46.82,29.13,46,29.32,45.22,29.52Z"/><path class="d" d="M51.71,28.29c1-.13,2-.24,3.13-.33C53.77,28.05,52.72,28.16,51.71,28.29Z"/><path class="e" d="M93.71,45.33v.11c0,5.82-15.39,11-34.55,11.72l-1.93.05a12.38,12.38,0,0,0-1.39-8.47h0a9.52,9.52,0,0,0-5.12-4.28l-7.43-4.56a1.6,1.6,0,0,0,.16-.23h0c.42.11.86.21,1.31.31a49.51,49.51,0,0,0,6.08.85q1.66.13,3.45.18c1.39,0,2.82,0,4.29,0s3.13-.16,4.61-.31c.37,0,.74-.07,1.1-.12.73-.09,1.44-.18,2.13-.29.43-.06.84-.14,1.25-.21l1.18-.22c.47-.09.93-.18,1.37-.29l1.26-.31h0c.41-.11.82-.22,1.21-.34l1.14-.36a21.13,21.13,0,0,0,2.49-1l.43-.22a9.1,9.1,0,0,0,1.39-.82l.35-.26a4.37,4.37,0,0,0,.6-.53l.25-.27a2.47,2.47,0,0,0,.21-.27,3.23,3.23,0,0,0,.18-.28,2.49,2.49,0,0,0,.15-.28,1.9,1.9,0,0,0,.17-.56,1.66,1.66,0,0,0,0-.32v-.09a1.75,1.75,0,0,0,0-.32A1.67,1.67,0,0,0,80,33c0-.09-.07-.18-.11-.27a.25.25,0,0,0,0-.07,1.28,1.28,0,0,0-.16-.27,3.1,3.1,0,0,0-.41-.5l.3.23,9,7.3L91,41.46a7.1,7.1,0,0,1,2.13,2.15v0A3.52,3.52,0,0,1,93.71,45.33Z"/><path class="f" d="M43.46,39.65h0a1.6,1.6,0,0,1-.16.23l-.79-.49,0,0C42.78,39.48,43.12,39.57,43.46,39.65Z"/><path class="f" d="M24.92,72.46l0,.11a3.6,3.6,0,0,1-.27-1.18Z"/><path class="f" d="M55.49,61.86a11.14,11.14,0,0,1-9.63,7.32c-3.7.35-6.53-2.83-6.77-4l1.06.58,2.7,1.49C47.52,68.91,52.73,66.52,55.49,61.86Z"/><path class="f" d="M108.73,171.94q-.12-.23-.24-.42"/><path class="f" d="M120.24,206.41c-.09-.37-.14-.56-.14-.56"/><path class="g" d="M88,301.15s-2.57,39.06-1.58,44.24c1.57,8.09,6.69,24.22,13.56,43.32,1.43,4,2.93,8.12,4.51,12.33a32.76,32.76,0,0,1,1,3.27,23.6,23.6,0,0,1-3.72,20.06c-15.37,23.46-13.21,23.18-5.64,50.08l3.41,12.18a12.16,12.16,0,0,1,.43,2.61l4.6,87.13c.2,4.56-3,20,1.82,12.45l.57-.94c-2,5.16-3.9,13.77-5.17,21.79h0A140.17,140.17,0,0,0,100,626c-.06,2.73-.12,5.44-.16,8.13-2.56-1.23-9.85-18.23-12.4-22.67l0,0C84.3,602.37,81,593.84,77.89,586c-.71-20.87-1.44-41.41-2-59.34.09-12.73-4.81-35.53-8.38-63.25-.85-6.64-1.63-13.56-2.25-20.7h0s0-.11,0-.16h0c-.36-4.23-.66-8.54-.89-12.9,1.12,2.81,2.31,5.77,3.6,8.82,1.74,4.14,3.66,8.48,5.73,12.88q.19.44.39.84c1.84,4,2.51,5.46,4.83,9.77l.08.16,6.28.41.19-30.23h0l.13-20.38.33-53.16-8-34.29-5.77.15v0l-3.4.13A62.8,62.8,0,0,0,63,332.71c-.32-37.67-.34-67.59.32-75.28.92-10.69,9.12-27.8,17.54-42.88,5.44,13.69,10.68,27.13,15.38,39.64C88.68,274.75,90.5,275.62,88,301.15Z"/><path class="f" d="M78.86,461.89c-2.32-4.31-3-5.81-4.83-9.77C75.55,455.35,77.16,458.62,78.86,461.89Z"/><path class="h" d="M91,674,91,717.8v5.63l-.9,0c-5.15.18-9.36-.94-9.41-2.51a2.68,2.68,0,0,0,0-.3c.84-6.8.21-37.31-.93-74.91-.31-10.45-.66-21.42-1-32.61A197.37,197.37,0,0,1,91,674Z"/><path class="f" d="M81.18,213.93c-.11.21-.23.42-.35.62"/><line class="f" x1="79.28" y1="31.86" x2="79.1" y2="31.71"/><path class="f" d="M25,72.63v0a.25.25,0,0,1,0-.07S25,72.62,25,72.63Z"/><path class="i" d="M128.34,369.87c-.28,3.93-6.43,12.57-14.94,23.91h0c-1,1.37-2.07,2.77-3.16,4.21h0q-1.5,2-3,4c-1.32-4.57-4.24-11.32-5.9-15.76,1.3-2.36,2.54-4.72,3.7-7.09.46-.92.91-1.84,1.34-2.76a104.13,104.13,0,0,0,8-22.79c3.28-15.8,2.35-25.32,2.16-33.24-.23-9.5-7.69-32.52-18.28-61-.64-1.73-1.29-3.48-2-5.23-4.7-12.51-9.94-25.95-15.38-39.64l0,0C57.17,155,29.52,89.83,25,72.67c2.26,5.18,17.14,8.73,35,8.11,3-.11,5.89-.32,8.66-.64l1.64-.2,1.61-.22c.53-.07,1-.15,1.57-.24l.77-.13,1.44-.26c1.26-.24,2.49-.5,3.65-.78l.69-.17.67-.17c.45-.11.88-.23,1.3-.36s.85-.24,1.25-.37l1.2-.39c.59-.2,1.15-.4,1.69-.61l.69-.28c.3-.12.59-.24.87-.37a22.19,22.19,0,0,0,2.72-1.39c.17-.1.34-.2.5-.31a8,8,0,0,0,.74-.51,8.38,8.38,0,0,0,.66-.52,2.55,2.55,0,0,0,.3-.26,6.48,6.48,0,0,0,.78-.8c.1-.11.18-.22.26-.32A4.47,4.47,0,0,0,94.41,70a1.31,1.31,0,0,0,.06-.27.64.64,0,0,0,0-.2,2.73,2.73,0,0,0,0-.41c.08,3-.69,6.86-1.44,10.73a58.38,58.38,0,0,0-1.43,10.4c-.28-8.61,0-11.72-4.55-10.3l-.46.15-.73.24-.51.18-.72.28-.06,0-.54.23-.28.12-.55.26c-.27.13-.55.28-.84.44l-.84.51-.56.38-.28.2c-.19.14-.37.28-.55.44a10.83,10.83,0,0,0-.82.72l-.27.27a14.94,14.94,0,0,0-1,1.16c-.17.2-.33.42-.49.65a7.18,7.18,0,0,0-.48.7c-.08.12-.16.24-.23.37-.23.38-.45.77-.66,1.19s-.28.56-.41.86-.22.52-.33.8-.21.56-.31.86-.2.58-.29.89c-.19.66-.37,1.36-.52,2.1,0,.18-.08.37-.11.55-.08.43-.16.88-.22,1.35,0,.28-.08.57-.11.86-.07.58-.13,1.19-.17,1.82,0,.24,0,.49,0,.73a51.35,51.35,0,0,0,0,5.65c0,.39,0,.79.08,1.19.06.8.14,1.64.24,2.49,0,.29.06.58.1.87.07.58.15,1.18.24,1.79,0,.3.09.61.14.92.1.62.2,1.25.32,1.89s.23,1.31.37,2c.2,1,.42,2,.65,3.1s.5,2.16.78,3.28c.84,3.38,1.88,7,3.14,11q1.88,6.27,3.91,12.94c.68,2.22,1.36,4.46,2.06,6.73q.53,1.69,1,3.42c.27.86.53,1.72.8,2.58.8,2.6,1.6,5.22,2.43,7.86.37,1.17.73,2.34,1.1,3.52L92.26,174c.74,2.37,1.49,4.74,2.24,7.13s1.5,4.78,2.26,7.18c4.08,12.92,8.25,25.9,12.28,38.3l1.87,5.73,1.84,5.63,2.72,8.23q1.17,3.54,2.31,6.95,1.48,4.47,2.91,8.7c.53,1.58,1.06,3.14,1.58,4.66q1.8,5.33,3.45,10.12c.36,1.06.72,2.11,1.08,3.13l.7,2c.23.65.45,1.3.68,1.93s.44,1.28.66,1.9l.8,2.26c.27.74.52,1.46.77,2.16s.6,1.65.88,2.44l.56,1.53h0c.19.49.36,1,.54,1.45h0l.52,1.38.49,1.31C141.12,318.49,129.34,356.33,128.34,369.87Z"/><path class="j" d="M94.53,68.94v.12a2.83,2.83,0,0,1,0,.41.69.69,0,0,1,0,.2l-.06.27a4.47,4.47,0,0,1-.76,1.53l-.26.32a6.48,6.48,0,0,1-.78.8,3.73,3.73,0,0,1-.3.26,7.22,7.22,0,0,1-.66.52,8,8,0,0,1-.74.51c-.16.11-.33.21-.5.31a22.19,22.19,0,0,1-2.72,1.39c-.28.13-.57.25-.87.37s-.45.19-.69.28c-.54.21-1.1.41-1.69.61l-1.2.39c-.4.13-.82.25-1.25.37l-1.3.36-.67.17-.69.17c-1.16.28-2.39.54-3.65.78l-1.44.26-.77.13c-.52.08-1,.17-1.57.24l-1.61.22-1.64.2c-2.77.32-5.67.53-8.66.64-17.88.62-32.76-2.93-35-8.11v0s0,0,0,0,0,0,0,0l0-.11-.24-1.07v-.11L24.18,57l11.33,6.24,3.58,2h0c.24,1.12,3.07,4.3,6.77,4a11.14,11.14,0,0,0,9.63-7.32,12.39,12.39,0,0,0,1-2.17h0l.15-.41a14.35,14.35,0,0,0,.54-2.07l1.93-.05c19.16-.68,34.55-5.9,34.55-11.72Z"/><path class="k" d="M108.49,171.52c-2.31,3.06-4.66,6.29-7,9.72q-.36.51-.84,1.23c-1.46-7.64-1.46-13.46,1-15.25S106.45,167.79,108.49,171.52Z"/><path class="l" d="M132.33,367c-.63,8.45-10.48,18.5-18.7,27.47-.07-.23-.14-.45-.23-.68h0c8.51-11.34,14.66-20,14.94-23.91,1-13.54,12.78-51.38,5.06-71.74l-.49-1.31-.52-1.38h0c-.18-.47-.35-1-.54-1.45h0l-.56-1.53c-.28-.79-.57-1.6-.88-2.44s-.5-1.42-.77-2.16l-.8-2.26c-.22-.62-.44-1.25-.66-1.9s-.45-1.28-.68-1.93c-1.61-4.62-3.37-9.74-5.23-15.26-.52-1.52-1-3.08-1.58-4.66q-1.43-4.23-2.91-8.7-1.14-3.4-2.31-6.95L112.75,238c-.6-1.86-1.22-3.73-1.84-5.63L109,226.59c-4-12.4-8.2-25.38-12.28-38.3q-1.14-3.6-2.26-7.18c-.75-2.39-1.5-4.76-2.24-7.13l-1.11-3.56c-.37-1.18-.73-2.35-1.1-3.52-1.09-3.52-2.16-7-3.23-10.44q-.52-1.72-1-3.42-1-3.4-2.06-6.73-2-6.66-3.91-12.94c-1.26-4-2.3-7.6-3.14-11-.28-1.12-.54-2.22-.78-3.28s-.45-2.1-.65-3.1c-.13-.67-.25-1.33-.37-2s-.22-1.27-.32-1.89c-.05-.31-.09-.62-.14-.92-.09-.61-.17-1.21-.24-1.79,0-.29-.07-.58-.1-.87-.1-.85-.18-1.69-.24-2.49a53.57,53.57,0,0,1-.13-6.84c0-.24,0-.49,0-.73a24.58,24.58,0,0,1,3.13-11.28c.07-.13.15-.25.23-.37a14.83,14.83,0,0,1,2-2.51l.27-.27a10.83,10.83,0,0,1,.82-.72c.18-.16.36-.3.55-.44l.28-.2.56-.38.84-.51c.29-.16.57-.31.84-.44l.55-.26.28-.12.54-.23.06,0,.72-.28.51-.18.73-.24.46-.15c4.5-1.42,4.27,1.69,4.55,10.3,0,.19,0,.39,0,.6a144.28,144.28,0,0,0,5.24,34.8,274.28,274.28,0,0,0,12.24,35.92c.84,1.95,1.67,3.92,2.46,5.92-1,1.33-2.07,2.68-3.13,4.08-2-3.73-4.44-6.09-6.89-4.3s-2.44,7.61-1,15.25c2,10.54,6.77,24.52,11.6,36.11,5.24,12.59,10.58,22.34,12.59,21.83.88-.22,2.89-.25,2.49-2.74-1.37-8.69-6.16-27.75-7.06-31.25q1.47-2,3.07-4.18c10.28,36.26,15.1,70.44,16.69,77.92C144.83,302.82,133.21,355.23,132.33,367Z"/><path class="m" d="M152.5,103.66a30.23,30.23,0,0,1-7.95-6.43,50,50,0,0,1-4.19-5.11.79.79,0,0,1,.77-1.24,25,25,0,0,0,10.74-.64l4.57,12.47C155.15,103.11,152.5,103.66,152.5,103.66Zm13.61-5.61-5,2.9L156.5,88.37l.07,0c3.27-1.74,8.25-6.62,8.29-6.41A79,79,0,0,1,166.11,98.05Zm3.53,10.43c-.33-8.86-4.12-29.66-2.8-39.86-1.41,7.57-6,14.09-12.92,17.29-12.17,5.58-27.15-1-33.46-14.77s-1.57-29.43,10.6-35a22,22,0,0,1,12.21-1.78c-10-1.76-32.3,2.46-37.77,20.44-3.19,13.18,4.65,29.78,12.39,38.06,30.21,33.4,15.13,47-6.27,74.59-1,1.33-2.07,2.68-3.13,4.08-2.31,3.06-4.66,6.29-7,9.72q-.36.51-.84,1.23c2,10.54,6.77,24.52,11.6,36.11,2.22-3.73,4.87-7.77,8-12.16q1.47-2,3.07-4.18c4.63-6.13,10.2-12.92,17-20.5C167.78,151,170.66,135.84,169.64,108.48Z"/><path class="n" d="M124.81,240.41c-2,.51-7.35-9.24-12.59-21.83,2.22-3.73,4.87-7.77,8-12.16.9,3.5,5.69,22.56,7.06,31.25C127.7,240.16,125.69,240.19,124.81,240.41Z"/><path class="o" d="M105,379.19c-1.16,2.37-2.4,4.73-3.7,7.09-.81-2.17-1.31-3.78-1.19-4.33C100.56,379.85,103,378.78,105,379.19Z"/><path class="p" d="M112.25,401.37c-.55,4.62-4.75,9.06-4.39,4.53a12.74,12.74,0,0,0-.67-3.86q1.55-2.07,3-4h0c.43-.5.94-1,1.45-1.53A14.67,14.67,0,0,1,112.25,401.37Z"/><path class="q" d="M102.25,364.1c-3.24-9.8-6.29-19.3-7.1-23.49-.4-2.05-.24-9.42.11-17.58Z"/><path class="r" d="M107.16,486.17l4.7,85.9A42.45,42.45,0,0,1,107,587.88c-.18.32-.38.63-.57,1-4.77,7.6-1.62-7.9-1.82-12.46L100,489.25a12.15,12.15,0,0,0-.43-2.62l-3.4-12.17c-7.58-26.91-9.74-26.62,5.63-50.09a23.6,23.6,0,0,0,3.72-20.06,32.61,32.61,0,0,0-1-3.26c-1.58-4.21-3.08-8.34-4.51-12.34-6.87-19.1-12-35.23-13.56-43.32-1-5.17,1.58-44.24,1.58-44.24,2.53-25.53.72-26.4,8.24-46.95.67,1.75,1.32,3.5,2,5.23-3.28,15.18-.83,30.72-1.45,36.95,0,0-.94,14.22-1.46,26.64h0c-.35,8.16-.51,15.53-.11,17.58.81,4.19,3.86,13.69,7.1,23.49,1.38,4.19,2.79,8.43,4.08,12.33-.43.92-.88,1.84-1.34,2.76-2-.41-4.43.66-4.89,2.76-.12.55.38,2.16,1.19,4.33,1.66,4.44,4.58,11.19,5.9,15.76a12.74,12.74,0,0,1,.67,3.86c-.36,4.53,3.84.09,4.39-4.53a14.67,14.67,0,0,0-.56-4.9c.65-.67,1.33-1.34,1.94-2,3.6,11.7-2.61,20.16-5.24,22.45l-6.7,8h0l-.78,1c-8.17,14.11-5.63,17.66.67,40.06l5,16.76A14.25,14.25,0,0,1,107.16,486.17Z"/><path class="f" d="M102.25,423.66q-.72,1.17-1.35,2.25"/><path class="f" d="M96.29,254c0,.07-.05.15-.08.21"/><path class="s" d="M156.44,102.71c-1.29.4-3.94,1-3.94,1a30.23,30.23,0,0,1-7.95-6.43,52.38,52.38,0,0,1-3.85-4.63,1,1,0,0,1,1-1.64,24.83,24.83,0,0,0,10.17-.72Z"/><path class="s" d="M166.11,98.05l-5,2.9L156.5,88.37l.07,0c3.27-1.74,8.25-6.62,8.29-6.41A79,79,0,0,1,166.11,98.05Z"/><line class="f" x1="98.18" y1="259.41" x2="98.17" y2="259.42"/><line class="f" x1="100.9" y1="425.91" x2="100.52" y2="426.38"/><line class="f" x1="105" y1="379.19" x2="104.99" y2="379.19"/><path class="t" d="M24.83,72.12c0,.07,0,.15.05.22l0,.12"/><path class="u" d="M85.87,358.68l-.33,53.16-.13,20.38h0l-.19,30.23-6.28-.41-.08-.16c-2.32-4.31-3-5.81-4.83-9.77q-.19-.4-.39-.84c-2.07-4.4-4-8.74-5.73-12.88-1.29-3-2.48-6-3.6-8.82-4.23-10.69-7.2-19.42-8.86-23.94-1.81-5,.4-57.07.4-57.07-.08-2.95,3.52-10,7.12-15.85h0a62.8,62.8,0,0,1,5.69-8.08l3.41-.09,5.77-.15Z"/><path class="v" d="M63.83,542.36c.54,10.16,6.79,25.1,14.06,43.59,3.12,7.89,6.41,16.42,9.52,25.51l0,0A276.21,276.21,0,0,1,99.61,659v0c.9,5.81,1.57,11.75,2,17.79.11,1.72.21,3.45.27,5.19l0,48H91.05V717.8L91,674a197.37,197.37,0,0,0-12.18-60.82h0c-10.19-28.25-23.15-48.44-24-63.69l-8.17-58.29c-.24-11.5,4.59-24,11.79-37,1.27-2.31,2.62-4.66,4-7,.89-1.47,1.79-3,2.72-4.44.62,7.14,1.4,14.06,2.25,20.7-5.84,12.71-9.17,25-7.82,35.51Z"/><polyline class="w" points="99.54 735.2 99.53 741.98 92.21 750 92.19 729.95"/><line class="x" x1="99.54" y1="729.95" x2="99.54" y2="735.2"/><path class="y" d="M99.61,659A276.21,276.21,0,0,0,87.43,611.5c2.55,4.44,9.84,21.44,12.4,22.67,1,.49,1.3-1.59.16-8.13a140.17,140.17,0,0,1,1.79-16.36c6,24.53,1.44,40.85-.22,67.08-.38-6-1-12-2-17.79Z"/><line class="x" x1="101.78" y1="609.68" x2="101.78" y2="609.67"/><path class="z" d="M80.11,33.61v.09a1.73,1.73,0,0,1,0,.32,1.9,1.9,0,0,1-.17.56,2.49,2.49,0,0,1-.15.28,3.23,3.23,0,0,1-.18.28,2.47,2.47,0,0,1-.21.27l-.25.27a4.37,4.37,0,0,1-.6.53l-.35.26a9.1,9.1,0,0,1-1.39.82l-.43.22a21.13,21.13,0,0,1-2.49,1l-1.14.36c-.39.12-.8.23-1.21.34h0l-1.26.31c-.88.2-1.8.38-2.77.55l-1,.17c-.69.11-1.4.2-2.13.29-.36.05-.73.09-1.1.12-1.48.15-3,.25-4.61.31s-2.9.06-4.29,0q-1.78,0-3.45-.18A49.51,49.51,0,0,1,44.77,40c-.45-.1-.89-.2-1.31-.31s-.68-.17-1-.27l-2.07-1.27L36.78,35.9a2.11,2.11,0,0,1-.18-.77c-.06-1.8,2.26-3.51,6.07-4.84l.21-.07.75-.24c.51-.16,1-.32,1.59-.46.78-.2,1.6-.39,2.45-.57.66-.13,1.35-.26,2-.37s1.31-.2,2-.29c1-.13,2-.24,3.13-.33s2.17-.15,3.29-.19c2.32-.08,4.55-.05,6.65.08.51,0,1,.07,1.5.12l.62.05c1.06.1,2.08.24,3,.39l.81.14.79.15.76.16c1,.22,1.91.47,2.74.74l.61.21a16,16,0,0,1,1.88.83,3.61,3.61,0,0,1,.39.22,6.26,6.26,0,0,1,1.35,1,3.1,3.1,0,0,1,.41.5,1.91,1.91,0,0,1,.16.27.25.25,0,0,1,0,.07c0,.09.08.18.11.27a1.67,1.67,0,0,1,.08.3A1.75,1.75,0,0,1,80.11,33.61Z"/><path class="aa" d="M43.46,39.65c.42.11.86.21,1.31.31q-.69-.14-1.32-.3c-.33-.08-.64-.17-1-.26-3.06-.89-5.13-2.1-5.72-3.5l3.61,2.21,2.07,1.27C42.78,39.48,43.12,39.57,43.46,39.65Z"/><path class="aa" d="M44.77,40a49.51,49.51,0,0,0,6.08.85A45.7,45.7,0,0,1,44.77,40Z"/><path class="aa" d="M50.85,40.81q1.66.13,3.45.18Q52.52,41,50.85,40.81Z"/><path class="aa" d="M58.59,41c1.58-.06,3.13-.16,4.61-.31-1.48.16-3,.26-4.61.32s-2.9.06-4.29,0C55.69,41,57.12,41,58.59,41Z"/><path class="aa" d="M70.23,39.53l-1.37.29C69.33,39.73,69.79,39.64,70.23,39.53Z"/><path class="aa" d="M68.86,39.82,67.68,40Z"/><path class="aa" d="M66.43,40.25c.43-.06.84-.14,1.25-.21l-.22,0Z"/><path class="ab" d="M43.46,39.65h0a1.6,1.6,0,0,1-.16.23l-.79-.49,0,0C42.78,39.48,43.12,39.57,43.46,39.65Z"/><path class="d" d="M5.57,29.71a12.42,12.42,0,0,1-2.07-1.9Z"/><path class="ac" d="M98.63,16.51l-1,2.13L88.53,39.41l-9-7.3-.3-.23a6.26,6.26,0,0,0-1.35-1,3.61,3.61,0,0,0-.39-.22,16,16,0,0,0-1.88-.83L75,29.6c-.83-.27-1.75-.52-2.74-.74l-.76-.16-.79-.15-.81-.14c-1-.15-2-.29-3-.39l8.8-19.2,0-.13a12.09,12.09,0,1,1,22.89,7.82Z"/><path class="ad" d="M36.6,35.13a2.11,2.11,0,0,0,.18.77L35.31,35,35,34.78l-3.17-1.94,0,0-.1-.06a12.31,12.31,0,0,0-7.1-2.39,12.6,12.6,0,0,0-2.57.23,12.37,12.37,0,0,0-8.58,6.34l-7.81-7.2,0,0L3.5,27.81h0A12.41,12.41,0,0,1,21.81,11.07a.5.5,0,0,1,.11.1h0L42.67,30.29C38.86,31.62,36.54,33.33,36.6,35.13Z"/><line class="d" x1="3.49" y1="27.8" x2="3.35" y2="27.67"/><path class="d" d="M18.12,53.51l-.09,0"/><path class="ae" d="M55.84,48.74h0a9.52,9.52,0,0,0-5.12-4.28l-7.43-4.56-.79-.49,0,0-2.07-1.27L36.78,35.9,35.31,35,35,34.78l-3.17-1.94,0,0-.1-.06a12.31,12.31,0,0,0-7.1-2.39,12.6,12.6,0,0,0-2.57.23A12.42,12.42,0,0,0,18,53.46h0a.18.18,0,0,0,.07,0L24.18,57l11.33,6.24,3.58,2h0l1.06.58,2.7,1.49c4.67,1.61,9.88-.78,12.64-5.44a12.39,12.39,0,0,0,1-2.17h0l.15-.41a14.35,14.35,0,0,0,.54-2.07A12.38,12.38,0,0,0,55.84,48.74Z"/><path class="d" d="M42.85,67.3a8.89,8.89,0,0,1-2.7-1.49Z"/><polyline class="af" points="95.26 323.02 102.25 351.54 102.25 364.09"/></svg>